<svg width="500" height="500" viewBox="0 0 500 500" fill="none" xmlns="http://www.w3.org/2000/svg">
<path d="M360.659 186.766L346.555 196.104C337.949 183.334 326.714 173.277 312.849 165.934C299.143 158.431 284.242 154.68 268.146 154.68C242.01 154.68 219.698 163.939 201.212 182.456C182.725 200.973 173.482 223.321 173.482 249.5C173.482 275.679 182.725 298.027 201.212 316.544C219.698 335.061 242.01 344.32 268.146 344.32C284.242 344.32 299.143 340.569 312.849 333.066C326.714 325.564 337.949 315.427 346.555 302.657L360.42 312.713C350.22 327.719 336.993 339.611 320.737 348.391C304.482 357.17 286.951 361.56 268.146 361.56C253.006 361.56 238.504 358.607 224.639 352.701C210.933 346.794 199.06 338.813 189.02 328.756C178.98 318.699 171.012 306.807 165.115 293.079C159.218 279.191 156.27 264.665 156.27 249.5C156.27 234.335 159.218 219.889 165.115 206.161C171.012 192.273 178.98 180.301 189.02 170.244C199.06 160.187 210.933 152.206 224.639 146.299C238.504 140.393 253.006 137.44 268.146 137.44C287.111 137.44 304.721 141.91 320.976 150.849C337.232 159.629 350.459 171.601 360.659 186.766ZM389.106 167.131L374.763 176.469C362.97 159.229 347.67 145.581 328.865 135.524C310.219 125.308 289.979 120.2 268.146 120.2C244.719 120.2 223.125 126.026 203.363 137.679C183.602 149.173 167.904 164.816 156.27 184.611C144.796 204.405 139.058 226.034 139.058 249.5C139.058 272.966 144.796 294.595 156.27 314.389C167.904 334.184 183.602 349.907 203.363 361.56C223.125 373.053 244.719 378.8 268.146 378.8C289.979 378.8 310.299 373.692 329.104 363.476C347.909 353.259 363.209 339.451 375.002 322.052L389.106 331.869C375.719 351.663 358.348 367.307 336.993 378.8C315.797 390.293 292.848 396.04 268.146 396.04C241.691 396.04 217.228 389.495 194.757 376.406C172.286 363.316 154.517 345.517 141.449 323.009C128.381 300.502 121.847 275.999 121.847 249.5C121.847 223.001 128.381 198.498 141.449 175.991C154.517 153.483 172.286 135.684 194.757 122.594C217.228 109.505 241.691 102.96 268.146 102.96C292.848 102.96 315.797 108.707 336.993 120.2C358.348 131.693 375.719 147.337 389.106 167.131ZM417.792 147.976L403.449 157.314C388.468 135.285 369.026 117.885 345.12 105.115C321.375 92.185 295.717 85.72 268.146 85.72C245.994 85.72 224.798 90.03 204.558 98.65C184.319 107.27 166.868 118.923 152.206 133.609C137.704 148.135 126.15 165.535 117.544 185.808C108.938 206.081 104.635 227.311 104.635 249.5C104.635 271.689 108.938 292.919 117.544 313.192C126.15 333.465 137.704 350.945 152.206 365.631C166.868 380.157 184.319 391.73 204.558 400.35C224.798 408.97 245.994 413.28 268.146 413.28C295.876 413.28 321.614 406.815 345.359 393.885C369.105 380.955 388.468 363.476 403.449 341.447L417.314 351.743C400.74 376.007 379.305 395.242 353.009 409.449C326.873 423.496 298.585 430.52 268.146 430.52C235.476 430.52 205.276 422.459 177.546 406.336C149.816 390.054 127.823 368.025 111.568 340.249C95.4714 312.474 87.4234 282.224 87.4234 249.5C87.4234 216.776 95.4714 186.526 111.568 158.751C127.823 130.975 149.816 109.026 177.546 92.9033C205.276 76.6211 235.476 68.48 268.146 68.48C298.745 68.48 327.192 75.6633 353.487 90.03C379.783 104.237 401.218 123.552 417.792 147.976ZM446 128.341L431.657 137.679C413.489 111.021 389.982 89.9502 361.137 74.4661C332.451 58.982 301.454 51.24 268.146 51.24C241.372 51.24 215.714 56.5078 191.172 67.0433C166.788 77.4193 145.752 91.4667 128.062 109.186C110.372 126.904 96.2682 148.055 85.75 172.638C75.3911 197.062 70.2117 222.682 70.2117 249.5C70.2117 276.318 75.3911 302.018 85.75 326.601C96.2682 351.024 110.372 372.096 128.062 389.814C145.752 407.533 166.788 421.661 191.172 432.196C215.714 442.572 241.372 447.76 268.146 447.76C301.454 447.76 332.53 439.938 361.376 424.294C390.221 408.651 413.728 387.5 431.896 360.842L445.761 371.377C425.999 400.111 400.501 422.938 369.265 439.858C338.029 456.619 304.322 465 268.146 465C238.982 465 211.092 459.253 184.478 447.76C158.023 436.426 135.154 421.182 115.87 402.026C96.7463 382.711 81.4471 359.804 69.9726 333.306C58.6575 306.647 53 278.712 53 249.5C53 220.288 58.6575 192.432 69.9726 165.934C81.4471 139.276 96.7463 116.369 115.87 97.2133C135.154 77.8981 158.023 62.5737 184.478 51.24C211.092 39.7467 238.982 34 268.146 34C304.482 34 338.268 42.4604 369.504 59.3811C400.74 76.3019 426.238 99.2885 446 128.341Z" fill="white"/>
</svg>
