<svg width="1850" height="410" viewBox="0 0 1850 410" fill="none" xmlns="http://www.w3.org/2000/svg">
<path d="M1801.5 101H1815.25L1671.81 326H1657.75L1801.5 101ZM1773.69 101H1787.44L1643.84 326H1630.09L1773.69 101ZM1745.88 101H1759.78L1616.19 326H1602.28L1745.88 101ZM1718.06 101H1732.12L1588.38 326H1574.62L1718.06 101ZM1649.31 196.469L1642.44 207.406L1574.62 101H1588.38L1649.31 196.469ZM1698.53 295.219L1705.41 284.281L1732.12 326H1718.06L1698.53 295.219ZM1663.22 174.75L1656.34 185.531L1602.44 101H1616.19L1663.22 174.75ZM1712.44 273.344L1719.31 262.562L1759.78 326H1746.03L1712.44 273.344ZM1677.12 152.875L1670.25 163.812L1630.09 101H1644L1677.12 152.875ZM1726.19 251.625L1733.22 240.688L1787.59 326H1773.69L1726.19 251.625ZM1691.03 131.156L1684 142.094L1657.75 101H1671.81L1691.03 131.156ZM1740.09 229.906L1747.12 219.125L1815.25 326H1801.5L1740.09 229.906Z" fill="white"/>
<path d="M1425.88 326H1414.62V101H1425.88V326ZM1403.38 326H1392.12V101H1403.38V326ZM1380.88 326H1369.62V101H1380.88V326ZM1448.38 269.75H1556.03V281H1448.38V292.25H1556.03V303.5H1448.38V314.75H1556.03V326H1437.12V101H1556.03V112.25H1448.38V123.5H1556.03V134.75H1448.38V146H1556.03V157.25H1448.38V185.219H1549.78V196.469H1448.38V207.719H1549.78V218.969H1448.38V230.219H1549.78V241.469H1448.38V269.75Z" fill="white"/>
<path d="M1170.56 258.5V168.5C1170.56 168.5 1191.34 168.5 1232.91 168.5C1244.47 168.5 1254.36 172.875 1262.59 181.625C1270.93 190.375 1275.09 200.896 1275.09 213.188C1275.09 225.896 1270.98 236.625 1262.75 245.375C1254.52 254.125 1244.57 258.5 1232.91 258.5H1170.56ZM1181.81 247.25H1232.91C1241.34 247.25 1248.53 243.969 1254.47 237.406C1260.51 230.844 1263.53 222.771 1263.53 213.188C1263.53 204.021 1260.51 196.156 1254.47 189.594C1248.53 183.031 1241.34 179.75 1232.91 179.75H1181.81V247.25ZM1159.31 269.75H1232.91C1247.7 269.75 1260.35 264.281 1270.88 253.344C1281.4 242.302 1286.66 228.917 1286.66 213.188C1286.66 197.771 1281.34 184.594 1270.72 173.656C1260.2 162.719 1247.59 157.25 1232.91 157.25H1159.31V269.75ZM1148.06 281V146H1232.91C1250.72 146 1266.03 152.615 1278.84 165.844C1291.76 178.969 1298.22 194.75 1298.22 213.188C1298.22 232.042 1291.81 248.083 1279 261.312C1266.19 274.438 1250.82 281 1232.91 281H1148.06ZM1136.81 292.25H1232.91C1246.66 292.25 1259.42 288.76 1271.19 281.781C1282.96 274.802 1292.33 265.219 1299.31 253.031C1306.29 240.844 1309.78 227.562 1309.78 213.188C1309.78 199.125 1306.29 186.052 1299.31 173.969C1292.33 161.885 1282.91 152.354 1271.03 145.375C1259.26 138.292 1246.55 134.75 1232.91 134.75H1136.81V292.25ZM1125.56 303.5V123.5H1232.91C1248.64 123.5 1263.27 127.51 1276.81 135.531C1290.46 143.552 1301.29 154.49 1309.31 168.344C1317.33 182.094 1321.34 197.042 1321.34 213.188C1321.34 229.542 1317.33 244.698 1309.31 258.656C1301.29 272.51 1290.46 283.448 1276.81 291.469C1263.27 299.49 1248.64 303.5 1232.91 303.5H1125.56ZM1114.31 314.75H1232.91C1250.72 314.75 1267.28 310.271 1282.59 301.312C1297.91 292.25 1310.09 279.906 1319.16 264.281C1328.32 248.656 1332.91 231.625 1332.91 213.188C1332.91 195.062 1328.32 178.24 1319.16 162.719C1310.09 147.094 1297.85 134.802 1282.44 125.844C1267.12 116.781 1250.61 112.25 1232.91 112.25H1114.31V314.75ZM1232.91 326H1103.06V101H1232.91C1252.7 101 1271.14 106.052 1288.22 116.156C1305.41 126.156 1319.05 139.802 1329.16 157.094C1339.36 174.281 1344.47 192.979 1344.47 213.188C1344.47 228.5 1341.45 243.135 1335.41 257.094C1329.47 271.052 1321.45 283.083 1311.34 293.188C1301.34 303.188 1289.47 311.156 1275.72 317.094C1261.97 323.031 1247.7 326 1232.91 326Z" fill="white"/>
<path d="M1062.44 101H1073.69V326H1062.44V101ZM1039.94 101H1051.19V326H1039.94V101ZM1017.44 101H1028.69V326H1017.44V101ZM994.938 101H1006.19V326H994.938V101Z" fill="white"/>
<path d="M873.375 326H862.125V101H969.469V112.25H873.375V123.5H969.469V134.75H873.375V146H969.469V157.25H873.375V191.625H961.969V202.875H873.375V214.125H961.969V225.375H873.375V236.625H961.969V247.875H873.375V326ZM850.875 326H839.625V101H850.875V326ZM828.375 326H817.125V101H828.375V326ZM805.875 326H794.625V101H805.875V326Z" fill="white"/>
<path d="M720.25 235.219L709 214.75V101H720.25V235.219ZM742.75 274.125L731.5 255.062V101H742.75V274.125ZM587.75 191.781L599 212.25V326H587.75V191.781ZM565.25 151.312L576.5 171.938V326H565.25V151.312ZM569.156 101H582.281L712.594 326H699.469L569.156 101ZM595.719 101H609L739.156 326H725.719L595.719 101ZM622.125 101H635.25L754 306.469V101H765.25V326H751.969L622.125 101ZM554 120.375V326H542.75V101H556.188L686.031 326H673.062L554 120.375Z" fill="white"/>
<path d="M361.812 181.781C353.062 190.531 348.688 201.104 348.688 213.5C348.688 225.896 353.062 236.521 361.812 245.375C370.667 254.125 381.292 258.5 393.688 258.5C406.083 258.5 416.656 254.125 425.406 245.375C434.26 236.521 438.688 225.896 438.688 213.5C438.688 201.104 434.26 190.531 425.406 181.781C416.656 172.927 406.083 168.5 393.688 168.5C381.292 168.5 370.667 172.927 361.812 181.781ZM353.844 253.344C342.906 242.302 337.438 229.021 337.438 213.5C337.438 197.979 342.906 184.75 353.844 173.812C364.885 162.771 378.167 157.25 393.688 157.25C409.208 157.25 422.438 162.771 433.375 173.812C444.417 184.75 449.938 197.979 449.938 213.5C449.938 229.021 444.417 242.302 433.375 253.344C422.438 264.281 409.208 269.75 393.688 269.75C378.167 269.75 364.885 264.281 353.844 253.344ZM345.875 165.844C332.75 179.073 326.188 194.958 326.188 213.5C326.188 232.042 332.75 247.927 345.875 261.156C359.104 274.385 375.042 281 393.688 281C412.333 281 428.219 274.385 441.344 261.156C454.573 247.927 461.188 232.042 461.188 213.5C461.188 194.958 454.573 179.073 441.344 165.844C428.219 152.615 412.333 146 393.688 146C375.042 146 359.104 152.615 345.875 165.844ZM325.406 253.031C318.427 240.948 314.938 227.771 314.938 213.5C314.938 199.229 318.427 186.052 325.406 173.969C332.49 161.885 342.073 152.354 354.156 145.375C366.24 138.292 379.417 134.75 393.688 134.75C407.958 134.75 421.135 138.292 433.219 145.375C445.302 152.354 454.833 161.885 461.812 173.969C468.896 186.052 472.438 199.229 472.438 213.5C472.438 227.771 468.896 240.948 461.812 253.031C454.833 265.115 445.302 274.698 433.219 281.781C421.135 288.76 407.958 292.25 393.688 292.25C379.417 292.25 366.24 288.76 354.156 281.781C342.073 274.698 332.49 265.115 325.406 253.031ZM310.719 178.656C306.031 189.698 303.688 201.312 303.688 213.5C303.688 225.688 306.031 237.354 310.719 248.5C315.51 259.542 321.917 269.125 329.938 277.25C338.062 285.271 347.646 291.677 358.688 296.469C369.833 301.156 381.5 303.5 393.688 303.5C405.875 303.5 417.49 301.156 428.531 296.469C439.677 291.677 449.26 285.271 457.281 277.25C465.406 269.125 471.812 259.542 476.5 248.5C481.292 237.354 483.688 225.688 483.688 213.5C483.688 201.312 481.292 189.698 476.5 178.656C471.812 167.51 465.406 157.927 457.281 149.906C449.26 141.781 439.677 135.375 428.531 130.688C417.49 125.896 405.875 123.5 393.688 123.5C381.5 123.5 369.833 125.896 358.688 130.688C347.646 135.375 338.062 141.781 329.938 149.906C321.917 157.927 315.51 167.51 310.719 178.656ZM300.406 252.875C295.094 240.375 292.438 227.25 292.438 213.5C292.438 199.75 295.094 186.625 300.406 174.125C305.823 161.625 313.01 150.896 321.969 141.938C331.031 132.875 341.812 125.688 354.312 120.375C366.812 114.958 379.938 112.25 393.688 112.25C407.438 112.25 420.562 114.958 433.062 120.375C445.562 125.688 456.292 132.875 465.25 141.938C474.312 150.896 481.5 161.625 486.812 174.125C492.229 186.625 494.938 199.75 494.938 213.5C494.938 227.25 492.229 240.375 486.812 252.875C481.5 265.375 474.312 276.156 465.25 285.219C456.292 294.177 445.562 301.365 433.062 306.781C420.562 312.094 407.438 314.75 393.688 314.75C379.938 314.75 366.812 312.094 354.312 306.781C341.812 301.365 331.031 294.177 321.969 285.219C313.01 276.156 305.823 265.375 300.406 252.875ZM290.094 169.906C284.156 183.76 281.188 198.292 281.188 213.5C281.188 228.708 284.156 243.292 290.094 257.25C296.031 271.104 304 283.083 314 293.188C324.104 303.188 336.083 311.156 349.938 317.094C363.896 323.031 378.479 326 393.688 326C408.896 326 423.427 323.031 437.281 317.094C451.24 311.156 463.219 303.188 473.219 293.188C483.323 283.083 491.344 271.104 497.281 257.25C503.219 243.292 506.188 228.708 506.188 213.5C506.188 198.292 503.219 183.76 497.281 169.906C491.344 155.948 483.323 143.969 473.219 133.969C463.219 123.865 451.24 115.844 437.281 109.906C423.427 103.969 408.896 101 393.688 101C378.479 101 363.896 103.969 349.938 109.906C336.083 115.844 324.104 123.865 314 133.969C304 143.969 296.031 155.948 290.094 169.906ZM279.781 261.625C273.219 246.312 269.938 230.271 269.938 213.5C269.938 196.729 273.219 180.74 279.781 165.531C286.344 150.219 295.146 137.042 306.188 126C317.229 114.958 330.354 106.156 345.562 99.5938C360.875 93.0312 376.917 89.75 393.688 89.75C410.458 89.75 426.448 93.0312 441.656 99.5938C456.969 106.156 470.146 114.958 481.188 126C492.229 137.042 501.031 150.219 507.594 165.531C514.156 180.74 517.438 196.729 517.438 213.5C517.438 230.271 514.156 246.312 507.594 261.625C501.031 276.833 492.229 289.958 481.188 301C470.146 312.042 456.969 320.844 441.656 327.406C426.448 333.969 410.458 337.25 393.688 337.25C376.917 337.25 360.875 333.969 345.562 327.406C330.354 320.844 317.229 312.042 306.188 301C295.146 289.958 286.344 276.833 279.781 261.625Z" fill="white"/>
<path d="M201.812 178.5L192.75 185.375C183.688 174.125 172.021 168.5 157.75 168.5C145.354 168.5 134.729 172.927 125.875 181.781C117.125 190.531 112.75 201.104 112.75 213.5C112.75 225.896 117.125 236.521 125.875 245.375C134.729 254.125 145.354 258.5 157.75 258.5C164.729 258.5 171.24 256.99 177.281 253.969C183.427 250.948 188.635 246.781 192.906 241.469L201.656 248.812C196.448 255.375 189.99 260.531 182.281 264.281C174.573 267.927 166.396 269.75 157.75 269.75C142.229 269.75 128.948 264.281 117.906 253.344C106.969 242.302 101.5 229.021 101.5 213.5C101.5 197.979 106.969 184.75 117.906 173.812C128.948 162.771 142.229 157.25 157.75 157.25C166.5 157.25 174.729 159.177 182.438 163.031C190.146 166.781 196.604 171.938 201.812 178.5ZM219.312 164.438L210.406 171.312C204.156 163.396 196.396 157.198 187.125 152.719C177.958 148.24 168.167 146 157.75 146C139.104 146 123.167 152.615 109.938 165.844C96.8125 179.073 90.25 194.958 90.25 213.5C90.25 232.042 96.8125 247.927 109.938 261.156C123.167 274.385 139.104 281 157.75 281C168.167 281 178.01 278.76 187.281 274.281C196.552 269.698 204.312 263.448 210.562 255.531L219.156 262.719C211.865 271.885 202.854 279.125 192.125 284.438C181.396 289.646 169.938 292.25 157.75 292.25C143.479 292.25 130.302 288.76 118.219 281.781C106.135 274.698 96.5521 265.115 89.4688 253.031C82.4896 240.948 79 227.771 79 213.5C79 199.229 82.4896 186.052 89.4688 173.969C96.5521 161.885 106.135 152.354 118.219 145.375C130.302 138.292 143.479 134.75 157.75 134.75C169.938 134.75 181.396 137.406 192.125 142.719C202.958 147.927 212.021 155.167 219.312 164.438ZM236.969 150.375L228.219 157.406C219.781 146.885 209.417 138.604 197.125 132.562C184.833 126.521 171.708 123.5 157.75 123.5C145.562 123.5 133.896 125.896 122.75 130.688C111.708 135.375 102.125 141.781 94 149.906C85.9792 157.927 79.5729 167.51 74.7812 178.656C70.0938 189.698 67.75 201.312 67.75 213.5C67.75 225.688 70.0938 237.354 74.7812 248.5C79.5729 259.542 85.9792 269.125 94 277.25C102.125 285.271 111.708 291.677 122.75 296.469C133.896 301.156 145.562 303.5 157.75 303.5C171.708 303.5 184.833 300.479 197.125 294.438C209.417 288.396 219.781 280.115 228.219 269.594L236.656 276.938C227.177 288.708 215.562 297.979 201.812 304.75C188.062 311.417 173.375 314.75 157.75 314.75C144 314.75 130.875 312.094 118.375 306.781C105.875 301.365 95.0938 294.177 86.0312 285.219C77.0729 276.156 69.8854 265.375 64.4688 252.875C59.1562 240.375 56.5 227.25 56.5 213.5C56.5 199.75 59.1562 186.625 64.4688 174.125C69.8854 161.625 77.0729 150.896 86.0312 141.938C95.0938 132.875 105.875 125.688 118.375 120.375C130.875 114.958 144 112.25 157.75 112.25C173.479 112.25 188.219 115.635 201.969 122.406C215.823 129.177 227.49 138.5 236.969 150.375ZM254.469 136.312L245.406 143.031C234.885 130.01 221.969 119.75 206.656 112.25C191.448 104.75 175.146 101 157.75 101C142.542 101 127.958 103.969 114 109.906C100.146 115.844 88.1667 123.865 78.0625 133.969C68.0625 143.969 60.0938 155.948 54.1562 169.906C48.2188 183.76 45.25 198.292 45.25 213.5C45.25 228.708 48.2188 243.292 54.1562 257.25C60.0938 271.104 68.0625 283.083 78.0625 293.188C88.1667 303.188 100.146 311.156 114 317.094C127.958 323.031 142.542 326 157.75 326C175.146 326 191.448 322.25 206.656 314.75C221.969 307.25 234.885 296.99 245.406 283.969L254.312 290.844C242.75 305.219 228.531 316.573 211.656 324.906C194.885 333.135 176.917 337.25 157.75 337.25C140.979 337.25 124.938 333.969 109.625 327.406C94.4167 320.844 81.2917 312.042 70.25 301C59.2083 289.958 50.4062 276.833 43.8438 261.625C37.2812 246.312 34 230.271 34 213.5C34 196.729 37.2812 180.74 43.8438 165.531C50.4062 150.219 59.2083 137.042 70.25 126C81.2917 114.958 94.4167 106.156 109.625 99.5938C124.938 93.0312 140.979 89.75 157.75 89.75C176.917 89.75 194.938 93.9167 211.812 102.25C228.688 110.479 242.906 121.833 254.469 136.312Z" fill="white"/>
</svg>
